<svg xmlns="http://www.w3.org/2000/svg" xmlns:xlink="http://www.w3.org/1999/xlink" viewBox="0 0 520 735.86"><defs><style>.cls-1{fill:url(#radial-gradient);}.cls-2{fill:url(#radial-gradient-2);}.cls-3{fill:url(#linear-gradient);}</style><radialGradient id="radial-gradient" cx="-250.49" cy="880.66" r="0.96" gradientTransform="matrix(475.96, 0, 0, -475.92, 119452.06, 419492.65)" gradientUnits="userSpaceOnUse"><stop offset="0" stop-color="#fff"/><stop offset="1" stop-color="#b3b3b3"/></radialGradient><radialGradient id="radial-gradient-2" cx="-249.86" cy="880.35" r="0.96" gradientTransform="matrix(213.19, 0, 0, -213.17, 53462.06, 188162.75)" gradientUnits="userSpaceOnUse"><stop offset="0" stop-color="#fff"/><stop offset="0.33" stop-color="#fcfcfc"/><stop offset="0.54" stop-color="#f4f4f4"/><stop offset="0.7" stop-color="#e6e6e6"/><stop offset="0.85" stop-color="#d2d2d2"/><stop offset="0.98" stop-color="#b8b8b8"/><stop offset="1" stop-color="#b3b3b3"/></radialGradient><linearGradient id="linear-gradient" x1="522.59" y1="153.84" x2="150.48" y2="525.95" gradientTransform="matrix(1, 0, 0, -1, 0, 737.86)" gradientUnits="userSpaceOnUse"><stop offset="0" stop-color="#fff"/><stop offset="1" stop-color="#ccc"/></linearGradient></defs><g id="Layer_2" data-name="Layer 2"><g id="white-logo"><g id="rezo-white"><path id="Vector" class="cls-1" d="M456.2,521c0,75.86-35.61,142.45-89.18,180-1.46,1.07-2.94,2.11-4.41,3.14l-2.2,1.51-.76.5c-.52.35-1,.69-1.56,1s-1,.7-1.58,1c-1.11.71-2.24,1.4-3.36,2.07-.61.39-1.23.75-1.85,1.11s-1.54.91-2.32,1.35-1.55.88-2.34,1.3l-2.09,1.15-.61.31c-.67.36-1.34.71-2,1-.36.2-.73.37-1.1.56l-1.1.55c-.66.34-1.36.64-2,1a149.41,149.41,0,0,1-18.47,7.6L317,727a41.65,41.65,0,0,1-6.62,1.51c-.42.07-.84.17-1.26.26l-3.09.62c-2.27.45-4.56.89-6.85,1.27-1.24.21-2.48.45-3.72.64l-1.61.25-2.42.36c-1.4.23-2.81.42-4.21.61a307.17,307.17,0,0,1-37.48,2.79h.18a302.14,302.14,0,0,1-34.51-1.7c-47.45-5.11-94-21.54-132.32-49.78-35.67-26.27-63.49-62.73-75.87-105.1-.91-3.11-1.74-6.24-2.47-9.38C-6.53,521.19,2.74,470.57,28.2,428q4.29-7.19,9.16-14.12c-1.2,2.22-2.35,4.49-3.45,6.77A161.26,161.26,0,0,0,21.5,457.2v0a.14.14,0,0,1,0,.06h0c-.79,3.76-1.45,7.52-2,11.32a156.79,156.79,0,0,0-1.4,26,164.92,164.92,0,0,0,4.19,32.15,173.32,173.32,0,0,0,27.18,60.57,183.89,183.89,0,0,0,73.11,60.84c48.24,22.29,108.85,29.1,157.81,5,22.36-11,40.12-27.24,54.25-46.76a199,199,0,0,0,13.29-21.13,210.85,210.85,0,0,0,15.95-36.95,163.79,163.79,0,0,0,7.77-46c0-1.66,0-3.32,0-5a168.89,168.89,0,0,0-20-79c-15.06-27.8-38.93-50-66.63-65.49l-.45-32a96.62,96.62,0,0,1,10.8,5.57,103.29,103.29,0,0,1,43.8,54.49c.5,1.46,1.9,5.27,3.2,9.45,1.34,3.57,2.83,7.81,3.85,11.67a40.47,40.47,0,0,0,4.95-13.2c6.1-30.73-8.17-59-26.32-82.81-24.59-32.29-50-62.48-68.86-98.77l-4.05-7.82c0,1.61,0,3.2.05,4.8.1,6.06.19,12.11.19,18.16V338.23c-2.06-.73-4.13-1.4-6.21-2.05q-5.59-1.74-11.29-3.12c-13.75-13.65-22.77-32.61-30.27-49.81a186.55,186.55,0,0,1-15.27-74.15c0-5.4.24-10.77.69-16.07,3.85-44.74,24.32-86.54,54.8-119.6C276,39.45,316.52,15.05,360.47.49h0L362,0c-.61.62-1.25,1.26-1.87,1.9-4.13,4.19-8.32,8.23-12.45,12.34-4.76,4.71-9.41,9.5-13.83,14.58a.05.05,0,0,0,0,0,213.07,213.07,0,0,0-38,73.68c0,.08-.05.15-.07.23-1.6,5.63-3,11.33-4.11,17.07,0,0,0,0,0,0-.36,2.09-.72,4.17-1,6.27,0,.21-.06.41-.1.63-.19,1.28-.35,2.55-.51,3.83-.64,5.28-1.09,10.57-1.31,15.84-.09,1.49-.13,3-.16,4.47-.06,2.33-.06,4.69,0,7A183.51,183.51,0,0,0,295,204.05c.21.83.45,1.66.69,2.49l.74,2.49c.25.81.5,1.64.77,2.46.31,1,.64,2,.95,2.95s.74,2.08,1.1,3.12c.26.72.52,1.45.79,2.17.08.19.14.35.21.54.3.84.62,1.69.94,2.51s.72,1.8,1.07,2.69c.21.52.42,1,.64,1.55.36.87.73,1.74,1.11,2.6.51,1.21,1.05,2.4,1.6,3.59,0,0,0,.08,0,.11.5,1.09,1,2.19,1.52,3.26.09.17.16.34.26.51.5,1.07,1,2.14,1.56,3.2a1.33,1.33,0,0,1,.06.12c.61,1.19,1.22,2.37,1.85,3.56.31.58.61,1.16.94,1.75s.64,1.17,1,1.75q1.72,3.14,3.58,6.22c.6,1,1.21,2,1.81,3a.76.76,0,0,1,.11.16l.07.11.13.22,1.7,2.65c.45.69.89,1.37,1.35,2.06s.94,1.4,1.41,2.11l1.2,1.75c1,1.46,2.07,2.94,3.15,4.37.48.69,1,1.36,1.48,2C337,282.94,346.62,292,355.58,302l.34.39a1.07,1.07,0,0,1,.14.16c.32.35.8.9,1.4,1.59l.34.36.73.85c.36.4.74.85,1.15,1.31L362,309.3l1,1.21c.18.2.35.42.54.64l1.13,1.32c.18.24.39.46.58.69.39.46.79.94,1.2,1.45.62.74,1.27,1.51,1.92,2.3.35.4.67.82,1,1.25l1.3,1.59c.26.31.52.64.77.95l1,1.26c.5.61,1,1.23,1.49,1.83l2.83,3.55c.26.31.51.64.76,1s.51.66.79,1l.09.1.36.46,1.44,1.84,1.65,2.1,1.66,2.15c2.81,3.62,5.71,7.46,8.65,11.45.59.79,1.17,1.6,1.76,2.41,1.24,1.69,2.48,3.41,3.71,5.12.68,1,1.38,1.94,2,2.9l1,1.47c.34.5.69,1,1,1.48.7,1,1.38,2,2.05,3s1.36,2,2,3,1.35,2,2,3c1.34,2,2.65,4,3.95,6.11.66,1,1.3,2.05,1.94,3.07s1.29,2,1.9,3.08c.33.51.64,1,.94,1.55,1,1.54,1.85,3.09,2.75,4.64.3.51.6,1,.89,1.55.46.77.89,1.55,1.32,2.32.23.39.44.78.65,1.16s.43.77.64,1.15q1.77,3.22,3.4,6.4c.49.95.95,1.9,1.42,2.84.31.63.63,1.25.92,1.87l.08.15c0,.07.06.15.1.22l.69,1.44c.41.87.83,1.76,1.2,2.62s.71,1.56,1.05,2.35a1.67,1.67,0,0,0,.08.2,1.2,1.2,0,0,1,.09.21c.35.75.65,1.51,1,2.26.09.24.18.48.29.71l.79,2c.24.61.47,1.21.7,1.83l.59,1.62c.41,1.14.8,2.26,1.16,3.39.13.37.24.73.34,1.08,0,.07.05.14.07.21a2.43,2.43,0,0,0,.13.38c0,.1,0,.2.09.3.06.26.15.52.23.77s.15.52.21.77c.21.66.37,1.31.55,2a223.24,223.24,0,0,1,9.93,28.55c.1.34.19.66.27,1A239.35,239.35,0,0,1,456.2,521Z"/><path id="Vector_2" data-name="Vector 2" class="cls-2" d="M371.94,497.54c0,1.65,0,3.3,0,5a163.8,163.8,0,0,1-7.78,46,208.62,208.62,0,0,1-15.95,36.95,193.36,193.36,0,0,1-13.29,21.13c-14.13,19.52-31.88,35.75-54.25,46.76-49,24.1-109.57,17.3-157.81-5a183.89,183.89,0,0,1-73.1-60.85,173.19,173.19,0,0,1-27.19-60.56,165.21,165.21,0,0,1-4.18-32.15,156.73,156.73,0,0,1,1.39-26c.52-3.8,1.19-7.56,2-11.32h0a.19.19,0,0,0,0-.07h0a160.63,160.63,0,0,1,12.42-36.56q1.63-3.43,3.44-6.77a160.4,160.4,0,0,1,21.6-30.62l0,0a167.29,167.29,0,0,1,99.67-53.88,198.4,198.4,0,0,1,71.68,2.66c1.46.32,2.91.67,4.36,1q5.69,1.38,11.28,3.12c2.09.65,4.16,1.32,6.21,2.05v114c-5.16-3.08-27.87-4.7-30.77-4.73h-1.08a92.52,92.52,0,0,0-30.87,5.4,86.58,86.58,0,0,0-22.82,12.3,75.9,75.9,0,0,0-23.22,27.88c-6.89,14.43-8.39,31.64-2.66,46.56,5.63,14.65,17.9,26.28,32.31,32.47s30.78,7.16,46.18,4.17a85,85,0,0,0,41-20.24A70,70,0,0,0,271.82,543c19.17-29,15.15-67.24,14.69-100.25q-.61-44.86-1.23-89.74c27.7,15.51,51.57,37.69,66.63,65.49A168.89,168.89,0,0,1,371.94,497.54Z"/><path id="Vector_3" data-name="Vector 3" class="cls-3" d="M518.75,501.06a281.27,281.27,0,0,1-49,134.35,253.77,253.77,0,0,1-49,45,276.77,276.77,0,0,1-35.46,21.89,293.06,293.06,0,0,1-39.82,17c-11.35,3.9-22.87,7.82-34.67,10.2q-10.38,2.13-21.11,3.57a316.79,316.79,0,0,1-37.82,2.79c-.66,0-1.33,0-2,0h-.25a307,307,0,0,0,37.48-2.79c1.41-.2,2.82-.39,4.22-.61l2.41-.37c.54-.08,1.07-.15,1.62-.25,1.24-.19,2.48-.41,3.71-.64q3.43-.59,6.85-1.27c1-.2,2.06-.4,3.09-.62.43-.09.85-.16,1.27-.26,2.21-.45,4.46-.87,6.62-1.51.19,0,.38-.08.55-.12q6.21-2.08,12.25-4.64,4-1.66,7.93-3.57c.67-.3,1.35-.64,2-1l.55-.26.54-.29,1.1-.55c.69-.35,1.36-.7,2-1.06l.61-.31c.69-.39,1.39-.76,2.08-1.14s1.57-.86,2.35-1.31,1.55-.89,2.31-1.35,1.25-.73,1.86-1.11c1.13-.66,2.24-1.36,3.35-2.06l1.59-1,1.55-1c.25-.17.51-.35.76-.5l2.2-1.52c1.48-1,3-2.06,4.41-3.14,53.58-37.54,89.19-104.13,89.19-180a235.41,235.41,0,0,0-8.1-61.47c-.09-.33-.17-.65-.27-1a224.25,224.25,0,0,0-9.93-28.55c-.17-.66-.34-1.3-.54-2-.07-.25-.14-.51-.22-.77s-.16-.51-.23-.77a2.8,2.8,0,0,1-.09-.31,2.84,2.84,0,0,1-.13-.38c0-.08,0-.14-.07-.21-.1-.35-.21-.7-.34-1.08-.36-1.13-.75-2.26-1.16-3.4-.19-.53-.39-1.08-.59-1.61l-.7-1.83-.79-2c-.11-.23-.2-.46-.29-.7-.32-.75-.63-1.51-1-2.26a.79.79,0,0,0-.09-.22,1.54,1.54,0,0,0-.08-.19c-.34-.79-.69-1.56-1.05-2.35s-.79-1.75-1.2-2.62c-.22-.48-.46-.95-.69-1.44,0-.07-.06-.15-.1-.22a1.09,1.09,0,0,0-.08-.15c-.3-.63-.61-1.25-.92-1.88l-1.42-2.83c-1.09-2.11-2.21-4.26-3.4-6.4-.21-.39-.41-.78-.64-1.16s-.42-.76-.65-1.15c-.43-.77-.86-1.55-1.32-2.32-.29-.51-.59-1-.89-1.55-.89-1.56-1.8-3.1-2.75-4.64-.3-.52-.61-1-.94-1.55-.61-1-1.25-2.06-1.9-3.09s-1.27-2-1.94-3.06c-1.3-2.06-2.61-4.1-3.95-6.11-.67-1-1.34-2-2-3s-1.34-2-2-3-1.35-2-2.05-3c-.33-.5-.68-1-1-1.48s-.68-1-1-1.47c-.66-1-1.36-1.94-2-2.9-1.24-1.71-2.47-3.44-3.71-5.13-.59-.8-1.17-1.61-1.76-2.4-2.94-4-5.84-7.82-8.65-11.45l-1.66-2.15c-.55-.7-1.1-1.41-1.65-2.1l-1.44-1.84-.36-.46a.43.43,0,0,0-.09-.1c-.27-.32-.52-.66-.79-1s-.5-.64-.76-.95c-1-1.22-1.91-2.4-2.83-3.55-.5-.6-1-1.22-1.49-1.84-.35-.41-.69-.83-1-1.25s-.51-.65-.77-1c-.45-.55-.88-1.07-1.3-1.6s-.69-.84-1-1.24c-.65-.8-1.3-1.56-1.91-2.31l-1.21-1.44c-.19-.23-.4-.46-.58-.7-.39-.44-.76-.9-1.13-1.31-.19-.22-.36-.44-.54-.64-.35-.41-.7-.82-1-1.21-.84-1-1.59-1.85-2.27-2.64-.41-.46-.79-.92-1.15-1.31l-.73-.85c-.1-.12-.23-.25-.34-.36-.6-.69-1.08-1.24-1.4-1.59a1.07,1.07,0,0,0-.14-.16l-.34-.39c-9-10-18.63-19.06-26.74-29.9-.5-.66-1-1.34-1.48-2-1.08-1.44-2.13-2.91-3.15-4.37l-1.2-1.75c-.48-.71-.95-1.41-1.41-2.11s-.9-1.37-1.35-2.06l-1.7-2.66-.13-.21-.07-.11a.57.57,0,0,0-.11-.16c-.6-1-1.21-2-1.81-3q-1.86-3.09-3.58-6.22c-.34-.59-.66-1.16-1-1.75s-.62-1.17-.94-1.76c-.63-1.18-1.24-2.36-1.85-3.55a.45.45,0,0,0-.06-.12c-.54-1.06-1.06-2.13-1.56-3.2-.1-.17-.18-.34-.26-.51-.52-1.09-1-2.17-1.52-3.26,0,0,0-.07,0-.11-.55-1.19-1.09-2.37-1.6-3.59-.39-.86-.75-1.73-1.11-2.61-.21-.51-.43-1-.64-1.54-.35-.89-.71-1.79-1.07-2.69s-.64-1.67-.94-2.51c-.08-.19-.14-.36-.21-.54-.26-.73-.52-1.46-.79-2.17-.36-1.05-.73-2.08-1.09-3.12s-.65-2-1-3c-.27-.83-.52-1.65-.77-2.46l-.74-2.49c-.24-.83-.48-1.66-.69-2.49a183.51,183.51,0,0,1-6.57-46.13c0-2.34,0-4.7,0-7,0-1.5.08-3,.16-4.47.23-5.27.67-10.56,1.31-15.84.16-1.27.34-2.55.51-3.84,0-.21.07-.41.1-.62.3-2.11.65-4.2,1-6.3q1.69-8.61,4.11-17.07c0-.08.05-.15.07-.23a213.07,213.07,0,0,1,38-73.68s0,0,0,0c4.42-5.09,9.07-9.87,13.83-14.59,4.13-4.1,8.32-8.15,12.45-12.33.63-.64,1.26-1.27,1.87-1.9h0s0,0,0,0a.83.83,0,0,0,.12,0l.09,0a.77.77,0,0,0,.23-.1l0,0a4.35,4.35,0,0,0,.93-.4l.05,0a1.05,1.05,0,0,0-.05.19,0,0,0,0,1,0,0l-.08.26a1.21,1.21,0,0,0,0,.14,1.74,1.74,0,0,0-.05.22.53.53,0,0,1-.05.15c-5.72,20.11-10.12,39.64-10.12,60.79,0,28.69,7.87,56.59,19.18,82.8,3.14,7.26,6.52,14.41,10.06,21.47,1.79,3.55,3.71,7,5.6,10.51,1.79,3.31,3.26,6.68,5,10,3.14,5.19,5.71,10.86,8.55,16.25,2.1,4,4.38,8,6.69,11.92s4.94,7.35,7.27,11.13c1.42,2.31,2.74,4.71,4.14,7.05,5.39,9,10.9,17.95,16.46,26.87q12.93,20.7,25.87,41.41t25.89,41.41c7.77,12.45,13,26.93,17.54,40.86.67,2,1.31,4.06,1.94,6.11a288.89,288.89,0,0,1,9.28,40.27A280.94,280.94,0,0,1,518.75,501.06Z"/></g></g></g></svg>
